<svg width="24" height="24" viewBox="0 0 24 24" fill="none" xmlns="http://www.w3.org/2000/svg">
<g clip-path="url(#clip0_1386_52273)">
<path d="M19.9957 0.540609C19.6134 0.540609 19.3035 0.850594 19.3035 1.23291V2.47683C17.2179 0.870656 14.676 0 12 0C8.79469 0 5.78123 1.24823 3.51469 3.51469C1.24819 5.78119 0 8.79469 0 12C0 15.2054 1.24823 18.2189 3.51478 20.4854C3.64997 20.6206 3.82716 20.6882 4.0043 20.6882C4.18144 20.6882 4.35867 20.6206 4.49386 20.4854C4.76419 20.215 4.76419 19.7767 4.49386 19.5063C2.48883 17.5013 1.38459 14.8356 1.38459 12C1.38459 6.14667 6.14667 1.38459 12 1.38459C14.2167 1.38459 16.3296 2.05945 18.1042 3.31195H17.2265C16.8442 3.31195 16.5342 3.62194 16.5342 4.00425C16.5342 4.38656 16.8442 4.69655 17.2265 4.69655H19.9957C20.0179 4.69655 20.0397 4.69523 20.0613 4.69322L20.062 4.69317C20.0812 4.69134 20.1 4.68834 20.1188 4.68502C20.1221 4.68441 20.1254 4.68413 20.1287 4.68352C20.147 4.67995 20.1648 4.67531 20.1826 4.67034C20.1864 4.66927 20.1903 4.66852 20.1942 4.66734C20.2114 4.66219 20.2282 4.65605 20.2449 4.64958C20.2492 4.64794 20.2537 4.64653 20.258 4.6448C20.2744 4.63809 20.2902 4.63045 20.306 4.62253C20.3105 4.62028 20.3151 4.61836 20.3195 4.61602C20.336 4.6073 20.3519 4.59764 20.3675 4.58761C20.3709 4.58545 20.3745 4.58358 20.3778 4.58138C20.4553 4.52998 20.5217 4.46358 20.5731 4.38609C20.5753 4.38272 20.5772 4.37916 20.5793 4.37573C20.5893 4.36008 20.5989 4.34423 20.6077 4.32783C20.61 4.32333 20.612 4.31873 20.6143 4.31423C20.6221 4.29853 20.6298 4.28273 20.6365 4.26637C20.6382 4.26202 20.6396 4.25761 20.6413 4.2532C20.6477 4.23656 20.6539 4.21973 20.659 4.20248C20.6602 4.19878 20.6609 4.19498 20.6619 4.19128C20.6671 4.17336 20.6715 4.15524 20.6752 4.13695C20.6757 4.13405 20.676 4.13105 20.6765 4.12814C20.6838 4.08783 20.6882 4.04658 20.6882 4.0042V1.23291C20.688 0.850547 20.3781 0.540609 19.9957 0.540609Z" fill="white"/>
<path d="M6.92686 21.3272C6.76939 21.2413 6.61412 21.1515 6.4612 21.0578C6.13528 20.8579 5.709 20.9601 5.50913 21.2861C5.30925 21.612 5.41149 22.0383 5.73741 22.2381C5.9104 22.3442 6.08606 22.4458 6.26424 22.5429C6.36564 22.5984 6.47936 22.6275 6.59494 22.6275C6.84014 22.6275 7.0778 22.4969 7.20342 22.2663C7.38642 21.9306 7.26253 21.5101 6.92686 21.3272ZM9.51361 22.3228C9.3397 22.2811 9.16477 22.2344 8.99377 22.1839C8.62697 22.0759 8.24213 22.2855 8.13403 22.6523C8.02594 23.019 8.23566 23.404 8.60241 23.5121C8.7971 23.5694 8.99321 23.6217 9.19055 23.6691C9.24483 23.6822 9.2992 23.6884 9.35264 23.6884C9.66539 23.6884 9.94908 23.475 10.0253 23.1575C10.1145 22.7857 9.88542 22.412 9.51361 22.3228ZM23.6668 9.18073C23.6193 8.98356 23.5668 8.78764 23.5094 8.59315C23.401 8.22645 23.0159 8.0172 22.6492 8.12548C22.2825 8.2339 22.0731 8.61902 22.1815 8.98563C22.2323 9.15752 22.2787 9.33067 22.3208 9.50491C22.3972 9.82216 22.6807 10.0353 22.9933 10.0353C23.0469 10.0353 23.1015 10.029 23.1559 10.0159C23.5275 9.92637 23.7563 9.55245 23.6668 9.18073ZM12.2726 22.612C12.093 22.6165 11.9132 22.6165 11.7336 22.6121C11.3515 22.6043 11.0338 22.9048 11.0242 23.287C11.0147 23.6693 11.3168 23.9868 11.6991 23.9963C11.9019 24.0014 12.1048 24.0013 12.3076 23.9962C12.6899 23.9865 12.9919 23.6689 12.9822 23.2866C12.9726 22.9044 12.6537 22.603 12.2726 22.612ZM23.1583 13.9702C22.7864 13.8812 22.4128 14.1104 22.3238 14.4823C22.282 14.6566 22.2358 14.8299 22.1852 15.0019C22.0772 15.3686 22.2871 15.7534 22.6539 15.8614C22.7191 15.8806 22.7849 15.8898 22.8496 15.8898C23.1488 15.8898 23.4248 15.6943 23.5135 15.3927C23.5707 15.1981 23.623 15.002 23.6703 14.8047C23.7593 14.4329 23.5301 14.0593 23.1583 13.9702ZM22.2685 16.7921C21.9328 16.6092 21.5123 16.7331 21.3294 17.069C21.2435 17.2267 21.1536 17.3822 21.0599 17.5354C20.8602 17.8615 20.9627 18.2877 21.2888 18.4873C21.3974 18.554 21.5223 18.5893 21.6496 18.5893C21.8826 18.5893 22.1102 18.4716 22.2408 18.2584C22.3464 18.0859 22.4489 17.9085 22.5454 17.7312C22.7283 17.3954 22.6043 16.975 22.2685 16.7921ZM23.9961 11.6892C23.9865 11.313 23.6785 11.0146 23.3043 11.0146C23.2984 11.0146 23.2924 11.0147 23.2864 11.0148C22.9041 11.0246 22.6021 11.3423 22.6119 11.7245C22.6164 11.904 22.6165 12.0837 22.6122 12.2632C22.6029 12.6455 22.9053 12.9628 23.2875 12.9721C23.2933 12.9723 23.2989 12.9723 23.3046 12.9723C23.6792 12.9723 23.9873 12.6733 23.9964 12.2967C23.9987 12.1985 24 12.0987 24 12C24 11.8966 23.9986 11.792 23.9961 11.6892ZM20.6753 19.2859C20.3981 19.0226 19.9599 19.0337 19.6965 19.3109C19.5729 19.441 19.4461 19.5679 19.3161 19.6916C19.0391 19.9552 19.0282 20.3934 19.2918 20.6704C19.3564 20.7385 19.4342 20.7926 19.5205 20.8296C19.6067 20.8666 19.6996 20.8856 19.7935 20.8855C19.9649 20.8855 20.1366 20.8222 20.2706 20.6947C20.4174 20.555 20.5607 20.4116 20.7004 20.2646C20.9637 19.9875 20.9526 19.5493 20.6753 19.2859ZM18.4938 21.284C18.2939 20.9582 17.8676 20.856 17.5417 21.0559C17.389 21.1496 17.2339 21.2394 17.0767 21.3252C16.7411 21.5083 16.6175 21.9289 16.8006 22.2645C16.9263 22.4949 17.1638 22.6254 17.4089 22.6254C17.521 22.6254 17.6347 22.5981 17.7399 22.5406C17.9177 22.4436 18.093 22.342 18.2657 22.2362C18.5917 22.0363 18.6938 21.61 18.4938 21.284ZM22.5383 6.25591C22.4411 6.07799 22.3394 5.90253 22.2334 5.7297C22.0334 5.40387 21.607 5.30182 21.2812 5.50188C20.9553 5.7019 20.8533 6.12823 21.0533 6.4541C21.1472 6.60697 21.2371 6.76219 21.3231 6.91962C21.4489 7.14987 21.6863 7.28023 21.9313 7.28023C22.0435 7.28023 22.1573 7.2529 22.2626 7.19534C22.5982 7.01205 22.7216 6.59149 22.5383 6.25591ZM15.8707 22.6507C15.7625 22.284 15.3775 22.0745 15.0108 22.1826C14.8389 22.2333 14.6657 22.2797 14.4915 22.3216C14.1197 22.4109 13.8907 22.7847 13.98 23.1565C14.0563 23.4739 14.3399 23.6873 14.6526 23.6873C14.7061 23.6873 14.7605 23.681 14.8148 23.6679C15.0121 23.6205 15.2081 23.5681 15.4027 23.5106C15.7694 23.4024 15.9789 23.0173 15.8707 22.6507Z" fill="white"/>
<path d="M6.99219 14.082H7.07031C7.35677 14.082 7.60807 14.0495 7.82422 13.9844C8.04036 13.9167 8.22135 13.8164 8.36719 13.6836C8.51562 13.5482 8.6276 13.3802 8.70312 13.1797C8.77865 12.9766 8.81641 12.737 8.81641 12.4609V11.3359C8.81641 11.1406 8.79818 10.9714 8.76172 10.8281C8.72786 10.6823 8.67708 10.5612 8.60938 10.4648C8.54167 10.3685 8.46224 10.2969 8.37109 10.25C8.27995 10.2031 8.17969 10.1797 8.07031 10.1797C7.95573 10.1797 7.85417 10.2096 7.76562 10.2695C7.67969 10.3294 7.60547 10.4102 7.54297 10.5117C7.48047 10.6133 7.43359 10.7279 7.40234 10.8555C7.37109 10.9831 7.35547 11.1133 7.35547 11.2461C7.35547 11.3893 7.37109 11.5234 7.40234 11.6484C7.4362 11.7734 7.48438 11.8828 7.54688 11.9766C7.60938 12.0703 7.6888 12.1445 7.78516 12.1992C7.88151 12.2513 7.99349 12.2773 8.12109 12.2773C8.2487 12.2773 8.35938 12.2539 8.45312 12.207C8.54948 12.1602 8.63021 12.0977 8.69531 12.0195C8.76302 11.9414 8.8138 11.8568 8.84766 11.7656C8.88151 11.6719 8.89844 11.5794 8.89844 11.4883L9.27344 11.7383C9.27344 11.9128 9.23438 12.0846 9.15625 12.2539C9.08073 12.4232 8.97526 12.5768 8.83984 12.7148C8.70443 12.8529 8.54688 12.9635 8.36719 13.0469C8.1901 13.1276 8.0013 13.168 7.80078 13.168C7.54036 13.168 7.30599 13.1211 7.09766 13.0273C6.89193 12.9336 6.71745 12.8021 6.57422 12.6328C6.43099 12.4609 6.32161 12.2578 6.24609 12.0234C6.17057 11.7891 6.13281 11.5312 6.13281 11.25C6.13281 10.974 6.17969 10.7148 6.27344 10.4727C6.36719 10.2279 6.5 10.013 6.67188 9.82812C6.84375 9.64323 7.04818 9.4974 7.28516 9.39062C7.52474 9.28385 7.78906 9.23047 8.07812 9.23047C8.36198 9.23047 8.6224 9.28516 8.85938 9.39453C9.09635 9.5013 9.30339 9.65495 9.48047 9.85547C9.65755 10.056 9.79427 10.2995 9.89062 10.5859C9.98958 10.8724 10.0391 11.1953 10.0391 11.5547V11.9766C10.0391 12.362 9.99479 12.7161 9.90625 13.0391C9.81771 13.362 9.6875 13.6484 9.51562 13.8984C9.34635 14.1484 9.14062 14.3607 8.89844 14.5352C8.65885 14.7096 8.38672 14.8424 8.08203 14.9336C7.77995 15.0221 7.44922 15.0664 7.08984 15.0664H6.99219V14.082ZM14.6836 11.6484V12.6602C14.6836 13.0768 14.6367 13.4375 14.543 13.7422C14.4518 14.0469 14.319 14.2982 14.1445 14.4961C13.9727 14.694 13.7669 14.8411 13.5273 14.9375C13.2904 15.0312 13.0273 15.0781 12.7383 15.0781C12.5065 15.0781 12.2904 15.0482 12.0898 14.9883C11.8893 14.9284 11.7083 14.8359 11.5469 14.7109C11.388 14.5833 11.2513 14.4245 11.1367 14.2344C11.0221 14.0443 10.9336 13.8177 10.8711 13.5547C10.8112 13.2917 10.7812 12.9935 10.7812 12.6602V11.6484C10.7812 11.2266 10.8268 10.8646 10.918 10.5625C11.0117 10.2604 11.1458 10.0104 11.3203 9.8125C11.4948 9.61458 11.7005 9.46875 11.9375 9.375C12.1771 9.28125 12.4414 9.23438 12.7305 9.23438C12.9622 9.23438 13.1771 9.26432 13.375 9.32422C13.5755 9.38411 13.7565 9.47656 13.918 9.60156C14.0794 9.72656 14.2161 9.88411 14.3281 10.0742C14.4427 10.2643 14.5299 10.4909 14.5898 10.7539C14.6523 11.0143 14.6836 11.3125 14.6836 11.6484ZM13.4648 12.8125V11.4883C13.4648 11.293 13.4531 11.1237 13.4297 10.9805C13.4089 10.8346 13.3776 10.7109 13.3359 10.6094C13.2969 10.5078 13.2474 10.4258 13.1875 10.3633C13.1276 10.3008 13.0586 10.2552 12.9805 10.2266C12.9049 10.1953 12.8216 10.1797 12.7305 10.1797C12.6159 10.1797 12.513 10.2031 12.4219 10.25C12.3307 10.2969 12.2539 10.3711 12.1914 10.4727C12.1289 10.5716 12.0807 10.7057 12.0469 10.875C12.0156 11.0417 12 11.2461 12 11.4883V12.8125C12 13.0078 12.0104 13.1784 12.0312 13.3242C12.0547 13.4701 12.0859 13.5951 12.125 13.6992C12.1667 13.8008 12.2174 13.8841 12.2773 13.9492C12.3372 14.0117 12.4062 14.0573 12.4844 14.0859C12.5625 14.1146 12.6471 14.1289 12.7383 14.1289C12.8529 14.1289 12.9544 14.1068 13.043 14.0625C13.1315 14.0156 13.207 13.9414 13.2695 13.8398C13.3346 13.7357 13.3828 13.599 13.4141 13.4297C13.4479 13.2604 13.4648 13.0547 13.4648 12.8125ZM15.5391 10.3164C15.5391 10.1185 15.5872 9.9375 15.6836 9.77344C15.7826 9.60938 15.9141 9.47917 16.0781 9.38281C16.2422 9.28385 16.4219 9.23438 16.6172 9.23438C16.8125 9.23438 16.9896 9.28385 17.1484 9.38281C17.3099 9.47917 17.4388 9.60938 17.5352 9.77344C17.6315 9.9375 17.6797 10.1185 17.6797 10.3164C17.6797 10.5143 17.6315 10.6953 17.5352 10.8594C17.4388 11.0208 17.3099 11.1497 17.1484 11.2461C16.9896 11.3398 16.8125 11.3867 16.6172 11.3867C16.4219 11.3867 16.2422 11.3398 16.0781 11.2461C15.9141 11.1497 15.7826 11.0208 15.6836 10.8594C15.5872 10.6953 15.5391 10.5143 15.5391 10.3164ZM16.1211 10.3164C16.1211 10.457 16.1693 10.5742 16.2656 10.668C16.3646 10.7591 16.4818 10.8047 16.6172 10.8047C16.75 10.8047 16.862 10.7591 16.9531 10.668C17.0469 10.5768 17.0938 10.4596 17.0938 10.3164C17.0938 10.1732 17.0469 10.0547 16.9531 9.96094C16.862 9.86458 16.75 9.81641 16.6172 9.81641C16.4818 9.81641 16.3646 9.86458 16.2656 9.96094C16.1693 10.0547 16.1211 10.1732 16.1211 10.3164Z" fill="white"/>
</g>
<defs>
<clipPath id="clip0_1386_52273">
<rect width="24" height="24" fill="white"/>
</clipPath>
</defs>
</svg>
