<svg width="24" height="24" viewBox="0 0 24 24" fill="none" xmlns="http://www.w3.org/2000/svg">
<path d="M22.2806 12.5306L19.2806 15.5306C19.1399 15.6714 18.949 15.7504 18.75 15.7504C18.551 15.7504 18.3601 15.6714 18.2194 15.5306C18.0787 15.3899 17.9996 15.199 17.9996 15C17.9996 14.801 18.0787 14.6101 18.2194 14.4694L19.9397 12.75H4.06032L5.78064 14.4694C5.92137 14.6101 6.00043 14.801 6.00043 15C6.00043 15.199 5.92137 15.3899 5.78064 15.5306C5.6399 15.6714 5.44903 15.7504 5.25001 15.7504C5.05099 15.7504 4.86012 15.6714 4.71939 15.5306L1.71939 12.5306C1.64965 12.461 1.59433 12.3783 1.55659 12.2872C1.51885 12.1962 1.49942 12.0986 1.49942 12C1.49942 11.9014 1.51885 11.8038 1.55659 11.7128C1.59433 11.6217 1.64965 11.539 1.71939 11.4694L4.71939 8.46937C4.86012 8.32864 5.05099 8.24958 5.25001 8.24958C5.44903 8.24958 5.6399 8.32864 5.78064 8.46937C5.92137 8.6101 6.00043 8.80097 6.00043 9C6.00043 9.19902 5.92137 9.38989 5.78064 9.53062L4.06032 11.25H19.9397L18.2194 9.53062C18.0787 9.38989 17.9996 9.19902 17.9996 9C17.9996 8.80097 18.0787 8.6101 18.2194 8.46937C18.3601 8.32864 18.551 8.24958 18.75 8.24958C18.949 8.24958 19.1399 8.32864 19.2806 8.46937L22.2806 11.4694C22.3504 11.539 22.4057 11.6217 22.4434 11.7128C22.4812 11.8038 22.5006 11.9014 22.5006 12C22.5006 12.0986 22.4812 12.1962 22.4434 12.2872C22.4057 12.3783 22.3504 12.461 22.2806 12.5306Z" fill="white"/>
</svg>
