<svg width="24" height="24" viewBox="0 0 24 24" fill="none" xmlns="http://www.w3.org/2000/svg">
<g clip-path="url(#clip0_1386_52262)">
<path d="M4.00425 0.540609C4.38661 0.540609 4.69655 0.850594 4.69655 1.23291V2.47683C6.78211 0.870656 9.324 0 12 0C15.2053 0 18.2188 1.24823 20.4853 3.51469C22.7518 5.78119 24 8.79469 24 12C24 15.2054 22.7518 18.2189 20.4852 20.4854C20.35 20.6206 20.1728 20.6882 19.9957 20.6882C19.8186 20.6882 19.6413 20.6206 19.5061 20.4854C19.2358 20.215 19.2358 19.7767 19.5061 19.5063C21.5112 17.5013 22.6154 14.8356 22.6154 12C22.6154 6.14667 17.8533 1.38459 12 1.38459C9.78333 1.38459 7.67044 2.05945 5.89584 3.31195H6.77348C7.15584 3.31195 7.46578 3.62194 7.46578 4.00425C7.46578 4.38656 7.1558 4.69655 6.77348 4.69655H4.00425C3.98213 4.69655 3.96033 4.69523 3.93872 4.69322L3.93801 4.69317C3.9188 4.69134 3.89995 4.68834 3.8812 4.68502C3.87792 4.68441 3.87459 4.68413 3.87131 4.68352C3.85303 4.67995 3.83517 4.67531 3.81741 4.67034C3.81356 4.66927 3.80967 4.66852 3.80583 4.66734C3.78858 4.66219 3.77175 4.65605 3.75511 4.64958C3.75075 4.64794 3.74634 4.64653 3.74198 4.6448C3.72558 4.63809 3.70978 4.63045 3.69403 4.62253C3.68953 4.62028 3.68494 4.61836 3.68048 4.61602C3.66398 4.6073 3.64814 4.59764 3.63248 4.58761C3.62911 4.58545 3.62555 4.58358 3.62217 4.58138C3.5447 4.52998 3.47832 4.46358 3.42694 4.38609C3.42469 4.38272 3.42281 4.37916 3.42066 4.37573C3.41067 4.36008 3.40106 4.34423 3.3923 4.32783C3.38995 4.32333 3.38798 4.31873 3.38573 4.31423C3.37786 4.29853 3.37022 4.28273 3.36352 4.26637C3.36178 4.26202 3.36038 4.25761 3.35874 4.2532C3.35227 4.23656 3.34612 4.21973 3.34097 4.20248C3.33984 4.19878 3.33914 4.19498 3.33811 4.19128C3.33294 4.17336 3.32851 4.15524 3.32484 4.13695C3.32428 4.13405 3.324 4.13105 3.32348 4.12814C3.31617 4.08783 3.31181 4.04658 3.31181 4.0042V1.23291C3.31195 0.850547 3.62194 0.540609 4.00425 0.540609Z" fill="white"/>
<path d="M17.0731 21.3272C17.2306 21.2413 17.3859 21.1515 17.5388 21.0578C17.8647 20.8579 18.291 20.9601 18.4909 21.2861C18.6907 21.612 18.5885 22.0383 18.2626 22.2381C18.0896 22.3442 17.9139 22.4458 17.7358 22.5429C17.6344 22.5984 17.5206 22.6275 17.4051 22.6275C17.1599 22.6275 16.9222 22.4969 16.7966 22.2663C16.6136 21.9306 16.7375 21.5101 17.0731 21.3272ZM14.4864 22.3228C14.6603 22.2811 14.8352 22.2344 15.0062 22.1839C15.373 22.0759 15.7579 22.2855 15.866 22.6523C15.9741 23.019 15.7643 23.404 15.3976 23.5121C15.2029 23.5694 15.0068 23.6217 14.8095 23.6691C14.7552 23.6822 14.7008 23.6884 14.6474 23.6884C14.3346 23.6884 14.0509 23.475 13.9747 23.1575C13.8855 22.7857 14.1146 22.412 14.4864 22.3228ZM0.333187 9.18073C0.380681 8.98356 0.433183 8.78764 0.490641 8.59315C0.599016 8.22645 0.984093 8.0172 1.3508 8.12548C1.7175 8.2339 1.92689 8.61902 1.81847 8.98563C1.76768 9.15752 1.72126 9.33067 1.67925 9.50491C1.60284 9.82216 1.31934 10.0353 1.00673 10.0353C0.953108 10.0353 0.898547 10.029 0.844078 10.0159C0.472453 9.92637 0.243656 9.55245 0.333187 9.18073ZM11.7274 22.612C11.907 22.6165 12.0868 22.6165 12.2664 22.6121C12.6485 22.6043 12.9662 22.9048 12.9758 23.287C12.9853 23.6693 12.6832 23.9868 12.3009 23.9963C12.0981 24.0014 11.8952 24.0013 11.6924 23.9962C11.3101 23.9865 11.0081 23.6689 11.0178 23.2866C11.0274 22.9044 11.3463 22.603 11.7274 22.612ZM0.841734 13.9702C1.21364 13.8812 1.58723 14.1104 1.67625 14.4823C1.71803 14.6566 1.76424 14.8299 1.81481 15.0019C1.92276 15.3686 1.71291 15.7534 1.34611 15.8614C1.28091 15.8806 1.21514 15.8898 1.15036 15.8898C0.851202 15.8898 0.575249 15.6943 0.486515 15.3927C0.429269 15.1981 0.376984 15.002 0.329716 14.8047C0.240653 14.4329 0.469921 14.0593 0.841734 13.9702ZM1.73147 16.7921C2.06723 16.6092 2.4877 16.7331 2.67061 17.069C2.75654 17.2267 2.84641 17.3822 2.94014 17.5354C3.13978 17.8615 3.03726 18.2877 2.71115 18.4873C2.60262 18.554 2.47773 18.5893 2.35036 18.5893C2.11739 18.5893 1.88981 18.4716 1.75922 18.2584C1.65361 18.0859 1.55109 17.9085 1.45462 17.7312C1.27172 17.3954 1.3957 16.975 1.73147 16.7921ZM0.00393677 11.6892C0.0135461 11.313 0.321468 11.0146 0.695671 11.0146C0.701624 11.0146 0.707623 11.0147 0.713623 11.0148C1.09589 11.0246 1.39786 11.3423 1.38811 11.7245C1.3836 11.904 1.38349 12.0837 1.38778 12.2632C1.39706 12.6455 1.09467 12.9628 0.712452 12.9721C0.706733 12.9723 0.701061 12.9723 0.695389 12.9723C0.320811 12.9723 0.0127493 12.6733 0.0036087 12.2967C0.00126495 12.1985 -1.90735e-06 12.0987 -1.90735e-06 12C-1.90735e-06 11.8966 0.00135864 11.792 0.00393677 11.6892ZM3.32466 19.2859C3.60187 19.0226 4.04006 19.0337 4.30345 19.3109C4.42706 19.441 4.55391 19.5679 4.68389 19.6916C4.96087 19.9552 4.9718 20.3934 4.70822 20.6704C4.6436 20.7385 4.56578 20.7926 4.47952 20.8296C4.39326 20.8666 4.30037 20.8856 4.20651 20.8855C4.03509 20.8855 3.86339 20.8222 3.72942 20.6947C3.58259 20.555 3.43928 20.4116 3.29963 20.2646C3.03628 19.9875 3.04744 19.5493 3.32466 19.2859ZM5.50622 21.284C5.70609 20.9582 6.13237 20.856 6.45834 21.0559C6.61102 21.1496 6.76605 21.2394 6.9233 21.3252C7.25892 21.5083 7.38253 21.9289 7.19939 22.2645C7.07372 22.4949 6.8362 22.6254 6.59109 22.6254C6.47901 22.6254 6.36534 22.5981 6.26006 22.5406C6.08229 22.4436 5.90698 22.342 5.73431 22.2362C5.40834 22.0363 5.30625 21.61 5.50622 21.284ZM1.46165 6.25591C1.5589 6.07799 1.66059 5.90253 1.76662 5.7297C1.96664 5.40387 2.39301 5.30182 2.71884 5.50188C3.04467 5.7019 3.14667 6.12823 2.94666 6.4541C2.85281 6.60697 2.76286 6.76219 2.67689 6.91962C2.55112 7.14987 2.31375 7.28023 2.06869 7.28023C1.95652 7.28023 1.84275 7.2529 1.73742 7.19534C1.40184 7.01205 1.27842 6.59149 1.46165 6.25591ZM8.1293 22.6507C8.23748 22.284 8.62247 22.0745 8.98922 22.1826C9.16111 22.2333 9.33426 22.2797 9.5085 22.3216C9.88026 22.4109 10.1093 22.7847 10.02 23.1565C9.94373 23.4739 9.66014 23.6873 9.34739 23.6873C9.29391 23.6873 9.23948 23.681 9.18516 23.6679C8.98789 23.6205 8.79188 23.5681 8.5973 23.5106C8.23064 23.4024 8.02111 23.0173 8.1293 22.6507Z" fill="white"/>
<path d="M6.68359 9.30078V15H5.55859V10.5977L4.20703 11.0273V10.1406L6.5625 9.30078H6.68359ZM12.3672 13.4414C12.3672 13.7982 12.2839 14.099 12.1172 14.3438C11.9505 14.5859 11.7214 14.7695 11.4297 14.8945C11.1406 15.0169 10.8125 15.0781 10.4453 15.0781C10.0781 15.0781 9.7487 15.0169 9.45703 14.8945C9.16536 14.7695 8.9349 14.5859 8.76562 14.3438C8.59635 14.099 8.51172 13.7982 8.51172 13.4414C8.51172 13.2018 8.5599 12.9857 8.65625 12.793C8.7526 12.5977 8.88672 12.431 9.05859 12.293C9.23307 12.1523 9.4375 12.0456 9.67188 11.9727C9.90625 11.8971 10.1615 11.8594 10.4375 11.8594C10.8073 11.8594 11.138 11.9245 11.4297 12.0547C11.7214 12.1849 11.9505 12.3685 12.1172 12.6055C12.2839 12.8424 12.3672 13.1211 12.3672 13.4414ZM11.2344 13.3672C11.2344 13.1927 11.2005 13.043 11.1328 12.918C11.0677 12.7904 10.9753 12.6927 10.8555 12.625C10.7357 12.5573 10.5964 12.5234 10.4375 12.5234C10.2786 12.5234 10.1393 12.5573 10.0195 12.625C9.89974 12.6927 9.80599 12.7904 9.73828 12.918C9.67318 13.043 9.64062 13.1927 9.64062 13.3672C9.64062 13.5391 9.67318 13.6875 9.73828 13.8125C9.80599 13.9375 9.89974 14.0339 10.0195 14.1016C10.1419 14.1667 10.2839 14.1992 10.4453 14.1992C10.6068 14.1992 10.7461 14.1667 10.8633 14.1016C10.9831 14.0339 11.0742 13.9375 11.1367 13.8125C11.2018 13.6875 11.2344 13.5391 11.2344 13.3672ZM12.2461 10.8203C12.2461 11.1094 12.1693 11.3659 12.0156 11.5898C11.862 11.8112 11.6484 11.9844 11.375 12.1094C11.1042 12.2344 10.7943 12.2969 10.4453 12.2969C10.0938 12.2969 9.78125 12.2344 9.50781 12.1094C9.23438 11.9844 9.02083 11.8112 8.86719 11.5898C8.71354 11.3659 8.63672 11.1094 8.63672 10.8203C8.63672 10.4766 8.71354 10.1875 8.86719 9.95312C9.02344 9.71615 9.23698 9.53646 9.50781 9.41406C9.78125 9.29167 10.0911 9.23047 10.4375 9.23047C10.7891 9.23047 11.1003 9.29167 11.3711 9.41406C11.6445 9.53646 11.8581 9.71615 12.0117 9.95312C12.168 10.1875 12.2461 10.4766 12.2461 10.8203ZM11.1211 10.8711C11.1211 10.7174 11.0938 10.5846 11.0391 10.4727C10.9844 10.3581 10.9062 10.2695 10.8047 10.207C10.7057 10.1445 10.5833 10.1133 10.4375 10.1133C10.2969 10.1133 10.1758 10.1432 10.0742 10.2031C9.97526 10.263 9.89844 10.3503 9.84375 10.4648C9.79167 10.5768 9.76562 10.7122 9.76562 10.8711C9.76562 11.0247 9.79167 11.1602 9.84375 11.2773C9.89844 11.3919 9.97656 11.4818 10.0781 11.5469C10.1797 11.612 10.3021 11.6445 10.4453 11.6445C10.5885 11.6445 10.7096 11.612 10.8086 11.5469C10.9102 11.4818 10.987 11.3919 11.0391 11.2773C11.0938 11.1602 11.1211 11.0247 11.1211 10.8711ZM16.957 11.6562V12.6406C16.957 13.0677 16.9115 13.4362 16.8203 13.7461C16.7292 14.0534 16.5977 14.306 16.4258 14.5039C16.2565 14.6992 16.0547 14.8438 15.8203 14.9375C15.5859 15.0312 15.3255 15.0781 15.0391 15.0781C14.8099 15.0781 14.5964 15.0495 14.3984 14.9922C14.2005 14.9323 14.0221 14.8398 13.8633 14.7148C13.707 14.5898 13.5716 14.4323 13.457 14.2422C13.3451 14.0495 13.2591 13.8203 13.1992 13.5547C13.1393 13.2891 13.1094 12.9844 13.1094 12.6406V11.6562C13.1094 11.2292 13.1549 10.8633 13.2461 10.5586C13.3398 10.2513 13.4714 10 13.6406 9.80469C13.8125 9.60938 14.0156 9.46615 14.25 9.375C14.4844 9.28125 14.7448 9.23438 15.0312 9.23438C15.2604 9.23438 15.4727 9.26432 15.668 9.32422C15.8659 9.38151 16.0443 9.47135 16.2031 9.59375C16.362 9.71615 16.4974 9.8737 16.6094 10.0664C16.7214 10.2565 16.8073 10.4844 16.8672 10.75C16.9271 11.013 16.957 11.3151 16.957 11.6562ZM15.8281 12.7891V11.5039C15.8281 11.2982 15.8164 11.1185 15.793 10.9648C15.7721 10.8112 15.7396 10.681 15.6953 10.5742C15.651 10.4648 15.5964 10.3763 15.5312 10.3086C15.4661 10.2409 15.3919 10.1914 15.3086 10.1602C15.2253 10.1289 15.1328 10.1133 15.0312 10.1133C14.9036 10.1133 14.7904 10.138 14.6914 10.1875C14.5951 10.237 14.513 10.3164 14.4453 10.4258C14.3776 10.5326 14.3255 10.6758 14.2891 10.8555C14.2552 11.0326 14.2383 11.2487 14.2383 11.5039V12.7891C14.2383 12.9948 14.2487 13.1758 14.2695 13.332C14.293 13.4883 14.3268 13.6224 14.3711 13.7344C14.418 13.8438 14.4727 13.9336 14.5352 14.0039C14.6003 14.0716 14.6745 14.1211 14.7578 14.1523C14.8438 14.1836 14.9375 14.1992 15.0391 14.1992C15.1641 14.1992 15.2747 14.1745 15.3711 14.125C15.4701 14.0729 15.5534 13.9922 15.6211 13.8828C15.6914 13.7708 15.7435 13.625 15.7773 13.4453C15.8112 13.2656 15.8281 13.0469 15.8281 12.7891ZM17.832 10.3047C17.832 10.1094 17.8802 9.93099 17.9766 9.76953C18.0729 9.60547 18.2018 9.47526 18.3633 9.37891C18.5247 9.28255 18.7018 9.23438 18.8945 9.23438C19.0846 9.23438 19.2591 9.28255 19.418 9.37891C19.5768 9.47526 19.7031 9.60547 19.7969 9.76953C19.8906 9.93099 19.9375 10.1094 19.9375 10.3047C19.9375 10.5 19.8906 10.6784 19.7969 10.8398C19.7031 10.9987 19.5768 11.125 19.418 11.2188C19.2591 11.3125 19.0846 11.3594 18.8945 11.3594C18.7018 11.3594 18.5247 11.3125 18.3633 11.2188C18.2018 11.125 18.0729 10.9987 17.9766 10.8398C17.8802 10.6784 17.832 10.5 17.832 10.3047ZM18.3945 10.3047C18.3945 10.4453 18.444 10.5625 18.543 10.6562C18.6419 10.75 18.7591 10.7969 18.8945 10.7969C19.0299 10.7969 19.1432 10.75 19.2344 10.6562C19.3255 10.5625 19.3711 10.4453 19.3711 10.3047C19.3711 10.1615 19.3255 10.0417 19.2344 9.94531C19.1432 9.84896 19.0299 9.80078 18.8945 9.80078C18.7591 9.80078 18.6419 9.84896 18.543 9.94531C18.444 10.0417 18.3945 10.1615 18.3945 10.3047Z" fill="white"/>
</g>
<defs>
<clipPath id="clip0_1386_52262">
<rect width="24" height="24" fill="white" transform="matrix(-1 0 0 1 24 0)"/>
</clipPath>
</defs>
</svg>
