<svg width="24" height="24" viewBox="0 0 24 24" fill="none" xmlns="http://www.w3.org/2000/svg">
<g clip-path="url(#clip0_1386_52247)">
<path d="M4.00425 0.540609C4.38661 0.540609 4.69655 0.850594 4.69655 1.23291V2.47683C6.78211 0.870656 9.324 0 12 0C15.2053 0 18.2188 1.24823 20.4853 3.51469C22.7518 5.78119 24 8.79469 24 12C24 15.2054 22.7518 18.2189 20.4852 20.4854C20.35 20.6206 20.1728 20.6882 19.9957 20.6882C19.8186 20.6882 19.6413 20.6206 19.5061 20.4854C19.2358 20.215 19.2358 19.7767 19.5061 19.5063C21.5112 17.5013 22.6154 14.8356 22.6154 12C22.6154 6.14667 17.8533 1.38459 12 1.38459C9.78333 1.38459 7.67044 2.05945 5.89584 3.31195H6.77348C7.15584 3.31195 7.46578 3.62194 7.46578 4.00425C7.46578 4.38656 7.1558 4.69655 6.77348 4.69655H4.00425C3.98213 4.69655 3.96033 4.69523 3.93872 4.69322L3.93801 4.69317C3.9188 4.69134 3.89995 4.68834 3.8812 4.68502C3.87792 4.68441 3.87459 4.68413 3.87131 4.68352C3.85303 4.67995 3.83517 4.67531 3.81741 4.67034C3.81356 4.66927 3.80967 4.66852 3.80583 4.66734C3.78858 4.66219 3.77175 4.65605 3.75511 4.64958C3.75075 4.64794 3.74634 4.64653 3.74198 4.6448C3.72558 4.63809 3.70978 4.63045 3.69403 4.62253C3.68953 4.62028 3.68494 4.61836 3.68048 4.61602C3.66398 4.6073 3.64814 4.59764 3.63248 4.58761C3.62911 4.58545 3.62555 4.58358 3.62217 4.58138C3.5447 4.52998 3.47832 4.46358 3.42694 4.38609C3.42469 4.38272 3.42281 4.37916 3.42066 4.37573C3.41067 4.36008 3.40106 4.34423 3.3923 4.32783C3.38995 4.32333 3.38798 4.31873 3.38573 4.31423C3.37786 4.29853 3.37022 4.28273 3.36352 4.26637C3.36178 4.26202 3.36038 4.25761 3.35874 4.2532C3.35227 4.23656 3.34612 4.21973 3.34097 4.20248C3.33984 4.19878 3.33914 4.19498 3.33811 4.19128C3.33294 4.17336 3.32851 4.15524 3.32484 4.13695C3.32428 4.13405 3.324 4.13105 3.32348 4.12814C3.31617 4.08783 3.31181 4.04658 3.31181 4.0042V1.23291C3.31195 0.850547 3.62194 0.540609 4.00425 0.540609Z" fill="white"/>
<path d="M17.0732 21.3272C17.2306 21.2413 17.3859 21.1515 17.5388 21.0578C17.8647 20.8579 18.291 20.9601 18.4909 21.2861C18.6908 21.612 18.5885 22.0383 18.2626 22.2381C18.0896 22.3442 17.914 22.4458 17.7358 22.5429C17.6344 22.5984 17.5207 22.6275 17.4051 22.6275C17.1599 22.6275 16.9222 22.4969 16.7966 22.2663C16.6136 21.9306 16.7375 21.5101 17.0732 21.3272ZM14.4864 22.3228C14.6603 22.2811 14.8353 22.2344 15.0063 22.1839C15.3731 22.0759 15.7579 22.2855 15.866 22.6523C15.9741 23.019 15.7644 23.404 15.3976 23.5121C15.2029 23.5694 15.0068 23.6217 14.8095 23.6691C14.7552 23.6822 14.7008 23.6884 14.6474 23.6884C14.3346 23.6884 14.051 23.475 13.9747 23.1575C13.8855 22.7857 14.1146 22.412 14.4864 22.3228ZM0.333218 9.18073C0.380712 8.98356 0.433214 8.78764 0.490671 8.59315C0.599046 8.22645 0.984123 8.0172 1.35083 8.12548C1.71753 8.2339 1.92692 8.61902 1.8185 8.98563C1.76771 9.15752 1.72129 9.33067 1.67928 9.50491C1.60287 9.82216 1.31937 10.0353 1.00676 10.0353C0.953138 10.0353 0.898577 10.029 0.844109 10.0159C0.472484 9.92637 0.243686 9.55245 0.333218 9.18073ZM11.7274 22.612C11.9071 22.6165 12.0868 22.6165 12.2665 22.6121C12.6485 22.6043 12.9663 22.9048 12.9758 23.287C12.9853 23.6693 12.6832 23.9868 12.3009 23.9963C12.0981 24.0014 11.8952 24.0013 11.6924 23.9962C11.3102 23.9865 11.0082 23.6689 11.0178 23.2866C11.0275 22.9044 11.3464 22.603 11.7274 22.612ZM0.841764 13.9702C1.21367 13.8812 1.58726 14.1104 1.67628 14.4823C1.71806 14.6566 1.76427 14.8299 1.81484 15.0019C1.9228 15.3686 1.71294 15.7534 1.34614 15.8614C1.28094 15.8806 1.21517 15.8898 1.15039 15.8898C0.851232 15.8898 0.57528 15.6943 0.486546 15.3927C0.429299 15.1981 0.377014 15.002 0.329746 14.8047C0.240684 14.4329 0.469952 14.0593 0.841764 13.9702ZM1.7315 16.7921C2.06726 16.6092 2.48773 16.7331 2.67064 17.069C2.75657 17.2267 2.84644 17.3822 2.94017 17.5354C3.13981 17.8615 3.03729 18.2877 2.71119 18.4873C2.60265 18.554 2.47776 18.5893 2.35039 18.5893C2.11742 18.5893 1.88984 18.4716 1.75925 18.2584C1.65364 18.0859 1.55112 17.9085 1.45465 17.7312C1.27175 17.3954 1.39573 16.975 1.7315 16.7921ZM0.00396729 11.6892C0.0135767 11.313 0.321498 11.0146 0.695702 11.0146C0.701655 11.0146 0.707654 11.0147 0.713654 11.0148C1.09592 11.0246 1.39789 11.3423 1.38814 11.7245C1.38363 11.904 1.38352 12.0837 1.38781 12.2632C1.39709 12.6455 1.0947 12.9628 0.712482 12.9721C0.706764 12.9723 0.701091 12.9723 0.695419 12.9723C0.320841 12.9723 0.0127798 12.6733 0.00363922 12.2967C0.00129547 12.1985 2.86102e-05 12.0987 2.86102e-05 12C2.86102e-05 11.8966 0.00138916 11.792 0.00396729 11.6892ZM3.32469 19.2859C3.6019 19.0226 4.04009 19.0337 4.30348 19.3109C4.42709 19.441 4.55394 19.5679 4.68392 19.6916C4.96091 19.9552 4.97183 20.3934 4.70825 20.6704C4.64363 20.7385 4.56581 20.7926 4.47955 20.8296C4.39329 20.8666 4.3004 20.8856 4.20654 20.8855C4.03512 20.8855 3.86342 20.8222 3.72945 20.6947C3.58262 20.555 3.43931 20.4116 3.29966 20.2646C3.03631 19.9875 3.04747 19.5493 3.32469 19.2859ZM5.50625 21.284C5.70612 20.9582 6.1324 20.856 6.45837 21.0559C6.61105 21.1496 6.76608 21.2394 6.92333 21.3252C7.25895 21.5083 7.38256 21.9289 7.19942 22.2645C7.07375 22.4949 6.83623 22.6254 6.59112 22.6254C6.47904 22.6254 6.36537 22.5981 6.26009 22.5406C6.08232 22.4436 5.90701 22.342 5.73434 22.2362C5.40837 22.0363 5.30628 21.61 5.50625 21.284ZM1.46169 6.25591C1.55893 6.07799 1.66062 5.90253 1.76665 5.7297C1.96667 5.40387 2.39304 5.30182 2.71887 5.50188C3.0447 5.7019 3.1467 6.12823 2.94669 6.4541C2.85285 6.60697 2.76289 6.76219 2.67692 6.91962C2.55115 7.14987 2.31378 7.28023 2.06872 7.28023C1.95655 7.28023 1.84278 7.2529 1.73745 7.19534C1.40187 7.01205 1.27845 6.59149 1.46169 6.25591ZM8.12933 22.6507C8.23751 22.284 8.6225 22.0745 8.98925 22.1826C9.16114 22.2333 9.33429 22.2797 9.50853 22.3216C9.88029 22.4109 10.1093 22.7847 10.02 23.1565C9.94376 23.4739 9.66017 23.6873 9.34742 23.6873C9.29394 23.6873 9.23951 23.681 9.18519 23.6679C8.98792 23.6205 8.79191 23.5681 8.59733 23.5106C8.23067 23.4024 8.02114 23.0173 8.12933 22.6507Z" fill="white"/>
<path d="M6.99219 14.082H7.07031C7.35677 14.082 7.60807 14.0495 7.82422 13.9844C8.04036 13.9167 8.22135 13.8164 8.36719 13.6836C8.51562 13.5482 8.6276 13.3802 8.70312 13.1797C8.77865 12.9766 8.81641 12.737 8.81641 12.4609V11.3359C8.81641 11.1406 8.79818 10.9714 8.76172 10.8281C8.72786 10.6823 8.67708 10.5612 8.60938 10.4648C8.54167 10.3685 8.46224 10.2969 8.37109 10.25C8.27995 10.2031 8.17969 10.1797 8.07031 10.1797C7.95573 10.1797 7.85417 10.2096 7.76562 10.2695C7.67969 10.3294 7.60547 10.4102 7.54297 10.5117C7.48047 10.6133 7.43359 10.7279 7.40234 10.8555C7.37109 10.9831 7.35547 11.1133 7.35547 11.2461C7.35547 11.3893 7.37109 11.5234 7.40234 11.6484C7.4362 11.7734 7.48438 11.8828 7.54688 11.9766C7.60938 12.0703 7.6888 12.1445 7.78516 12.1992C7.88151 12.2513 7.99349 12.2773 8.12109 12.2773C8.2487 12.2773 8.35938 12.2539 8.45312 12.207C8.54948 12.1602 8.63021 12.0977 8.69531 12.0195C8.76302 11.9414 8.8138 11.8568 8.84766 11.7656C8.88151 11.6719 8.89844 11.5794 8.89844 11.4883L9.27344 11.7383C9.27344 11.9128 9.23438 12.0846 9.15625 12.2539C9.08073 12.4232 8.97526 12.5768 8.83984 12.7148C8.70443 12.8529 8.54688 12.9635 8.36719 13.0469C8.1901 13.1276 8.0013 13.168 7.80078 13.168C7.54036 13.168 7.30599 13.1211 7.09766 13.0273C6.89193 12.9336 6.71745 12.8021 6.57422 12.6328C6.43099 12.4609 6.32161 12.2578 6.24609 12.0234C6.17057 11.7891 6.13281 11.5312 6.13281 11.25C6.13281 10.974 6.17969 10.7148 6.27344 10.4727C6.36719 10.2279 6.5 10.013 6.67188 9.82812C6.84375 9.64323 7.04818 9.4974 7.28516 9.39062C7.52474 9.28385 7.78906 9.23047 8.07812 9.23047C8.36198 9.23047 8.6224 9.28516 8.85938 9.39453C9.09635 9.5013 9.30339 9.65495 9.48047 9.85547C9.65755 10.056 9.79427 10.2995 9.89062 10.5859C9.98958 10.8724 10.0391 11.1953 10.0391 11.5547V11.9766C10.0391 12.362 9.99479 12.7161 9.90625 13.0391C9.81771 13.362 9.6875 13.6484 9.51562 13.8984C9.34635 14.1484 9.14062 14.3607 8.89844 14.5352C8.65885 14.7096 8.38672 14.8424 8.08203 14.9336C7.77995 15.0221 7.44922 15.0664 7.08984 15.0664H6.99219V14.082ZM14.6836 11.6484V12.6602C14.6836 13.0768 14.6367 13.4375 14.543 13.7422C14.4518 14.0469 14.319 14.2982 14.1445 14.4961C13.9727 14.694 13.7669 14.8411 13.5273 14.9375C13.2904 15.0312 13.0273 15.0781 12.7383 15.0781C12.5065 15.0781 12.2904 15.0482 12.0898 14.9883C11.8893 14.9284 11.7083 14.8359 11.5469 14.7109C11.388 14.5833 11.2513 14.4245 11.1367 14.2344C11.0221 14.0443 10.9336 13.8177 10.8711 13.5547C10.8112 13.2917 10.7812 12.9935 10.7812 12.6602V11.6484C10.7812 11.2266 10.8268 10.8646 10.918 10.5625C11.0117 10.2604 11.1458 10.0104 11.3203 9.8125C11.4948 9.61458 11.7005 9.46875 11.9375 9.375C12.1771 9.28125 12.4414 9.23438 12.7305 9.23438C12.9622 9.23438 13.1771 9.26432 13.375 9.32422C13.5755 9.38411 13.7565 9.47656 13.918 9.60156C14.0794 9.72656 14.2161 9.88411 14.3281 10.0742C14.4427 10.2643 14.5299 10.4909 14.5898 10.7539C14.6523 11.0143 14.6836 11.3125 14.6836 11.6484ZM13.4648 12.8125V11.4883C13.4648 11.293 13.4531 11.1237 13.4297 10.9805C13.4089 10.8346 13.3776 10.7109 13.3359 10.6094C13.2969 10.5078 13.2474 10.4258 13.1875 10.3633C13.1276 10.3008 13.0586 10.2552 12.9805 10.2266C12.9049 10.1953 12.8216 10.1797 12.7305 10.1797C12.6159 10.1797 12.513 10.2031 12.4219 10.25C12.3307 10.2969 12.2539 10.3711 12.1914 10.4727C12.1289 10.5716 12.0807 10.7057 12.0469 10.875C12.0156 11.0417 12 11.2461 12 11.4883V12.8125C12 13.0078 12.0104 13.1784 12.0312 13.3242C12.0547 13.4701 12.0859 13.5951 12.125 13.6992C12.1667 13.8008 12.2174 13.8841 12.2773 13.9492C12.3372 14.0117 12.4062 14.0573 12.4844 14.0859C12.5625 14.1146 12.6471 14.1289 12.7383 14.1289C12.8529 14.1289 12.9544 14.1068 13.043 14.0625C13.1315 14.0156 13.207 13.9414 13.2695 13.8398C13.3346 13.7357 13.3828 13.599 13.4141 13.4297C13.4479 13.2604 13.4648 13.0547 13.4648 12.8125ZM15.5391 10.3164C15.5391 10.1185 15.5872 9.9375 15.6836 9.77344C15.7826 9.60938 15.9141 9.47917 16.0781 9.38281C16.2422 9.28385 16.4219 9.23438 16.6172 9.23438C16.8125 9.23438 16.9896 9.28385 17.1484 9.38281C17.3099 9.47917 17.4388 9.60938 17.5352 9.77344C17.6315 9.9375 17.6797 10.1185 17.6797 10.3164C17.6797 10.5143 17.6315 10.6953 17.5352 10.8594C17.4388 11.0208 17.3099 11.1497 17.1484 11.2461C16.9896 11.3398 16.8125 11.3867 16.6172 11.3867C16.4219 11.3867 16.2422 11.3398 16.0781 11.2461C15.9141 11.1497 15.7826 11.0208 15.6836 10.8594C15.5872 10.6953 15.5391 10.5143 15.5391 10.3164ZM16.1211 10.3164C16.1211 10.457 16.1693 10.5742 16.2656 10.668C16.3646 10.7591 16.4818 10.8047 16.6172 10.8047C16.75 10.8047 16.862 10.7591 16.9531 10.668C17.0469 10.5768 17.0938 10.4596 17.0938 10.3164C17.0938 10.1732 17.0469 10.0547 16.9531 9.96094C16.862 9.86458 16.75 9.81641 16.6172 9.81641C16.4818 9.81641 16.3646 9.86458 16.2656 9.96094C16.1693 10.0547 16.1211 10.1732 16.1211 10.3164Z" fill="white"/>
</g>
<defs>
<clipPath id="clip0_1386_52247">
<rect width="24" height="24" fill="white" transform="matrix(-1 0 0 1 24 0)"/>
</clipPath>
</defs>
</svg>
