<svg width="25" height="24" viewBox="0 0 25 24" fill="none" xmlns="http://www.w3.org/2000/svg">
<path d="M22.4889 13.5004C22.4871 15.0912 21.8544 16.6163 20.7296 17.7411C19.6048 18.866 18.0796 19.4987 16.4889 19.5004H8.23887C8.03996 19.5004 7.84919 19.4214 7.70854 19.2807C7.56789 19.1401 7.48887 18.9493 7.48887 18.7504C7.48887 18.5515 7.56789 18.3607 7.70854 18.2201C7.84919 18.0794 8.03996 18.0004 8.23887 18.0004H16.4889C17.6823 18.0004 18.8269 17.5263 19.6709 16.6824C20.5148 15.8385 20.9889 14.6939 20.9889 13.5004C20.9889 12.3069 20.5148 11.1624 19.6709 10.3184C18.8269 9.47452 17.6823 9.00042 16.4889 9.00042H5.54918L8.7695 12.2198C8.91023 12.3605 8.98929 12.5514 8.98929 12.7504C8.98929 12.9494 8.91023 13.1403 8.7695 13.281C8.62877 13.4218 8.43789 13.5008 8.23887 13.5008C8.03985 13.5008 7.84898 13.4218 7.70825 13.281L3.20825 8.78104C3.13851 8.71139 3.08319 8.62867 3.04545 8.53762C3.00771 8.44657 2.98828 8.34898 2.98828 8.25042C2.98828 8.15186 3.00771 8.05426 3.04545 7.96321C3.08319 7.87216 3.13851 7.78945 3.20825 7.71979L7.70825 3.21979C7.84898 3.07906 8.03985 3 8.23887 3C8.43789 3 8.62877 3.07906 8.7695 3.21979C8.91023 3.36052 8.98929 3.55139 8.98929 3.75042C8.98929 3.94944 8.91023 4.14031 8.7695 4.28104L5.54918 7.50042H16.4889C18.0796 7.50215 19.6048 8.13485 20.7296 9.2597C21.8544 10.3845 22.4871 11.9097 22.4889 13.5004Z" fill="black"/>
</svg>
