<svg width="24" height="24" viewBox="0 0 24 24" fill="none" xmlns="http://www.w3.org/2000/svg">
<path d="M21.5306 10.2806L17.0306 14.7806C16.8899 14.9214 16.699 15.0004 16.5 15.0004C16.301 15.0004 16.1101 14.9214 15.9694 14.7806C15.8286 14.6399 15.7496 14.449 15.7496 14.25C15.7496 14.051 15.8286 13.8601 15.9694 13.7194L19.1897 10.5H12C9.81273 10.5025 7.71575 11.3725 6.16911 12.9191C4.62247 14.4657 3.75248 16.5627 3.75 18.75C3.75 18.9489 3.67098 19.1397 3.53033 19.2803C3.38968 19.421 3.19891 19.5 3 19.5C2.80109 19.5 2.61032 19.421 2.46967 19.2803C2.32902 19.1397 2.25 18.9489 2.25 18.75C2.25273 16.165 3.28084 13.6866 5.10872 11.8587C6.93661 10.0308 9.41498 9.00273 12 9H19.1897L15.9694 5.78062C15.8997 5.71094 15.8444 5.62821 15.8067 5.53717C15.769 5.44612 15.7496 5.34854 15.7496 5.25C15.7496 5.15145 15.769 5.05387 15.8067 4.96283C15.8444 4.87178 15.8997 4.78906 15.9694 4.71937C16.1101 4.57864 16.301 4.49958 16.5 4.49958C16.5985 4.49958 16.6961 4.51899 16.7872 4.5567C16.8782 4.59441 16.9609 4.64969 17.0306 4.71937L21.5306 9.21937C21.6004 9.28903 21.6557 9.37174 21.6934 9.46279C21.7312 9.55384 21.7506 9.65144 21.7506 9.75C21.7506 9.84856 21.7312 9.94615 21.6934 10.0372C21.6557 10.1283 21.6004 10.211 21.5306 10.2806Z" fill="white"/>
</svg>
