<svg width="25" height="24" viewBox="0 0 25 24" fill="none" xmlns="http://www.w3.org/2000/svg">
<path d="M22.1074 17.2502C22.1074 17.4491 22.0284 17.6399 21.8878 17.7805C21.7471 17.9212 21.5563 18.0002 21.3574 18.0002C21.1585 18.0002 20.9677 17.9212 20.8271 17.7805C20.6864 17.6399 20.6074 17.4491 20.6074 17.2502C20.6072 15.6186 20.1233 14.0238 19.2167 12.6672C18.3102 11.3107 17.0218 10.2535 15.5144 9.62912C14.0071 9.00478 12.3484 8.84141 10.7482 9.15965C9.148 9.47789 7.67808 10.2635 6.5243 11.417L4.42617 13.5002H8.60742C8.80633 13.5002 8.9971 13.5792 9.13775 13.7198C9.2784 13.8605 9.35742 14.0513 9.35742 14.2502C9.35742 14.4491 9.2784 14.6399 9.13775 14.7805C8.9971 14.9212 8.80633 15.0002 8.60742 15.0002H2.60742C2.40851 15.0002 2.21774 14.9212 2.07709 14.7805C1.93644 14.6399 1.85742 14.4491 1.85742 14.2502V8.25017C1.85742 8.05126 1.93644 7.86049 2.07709 7.71984C2.21774 7.57919 2.40851 7.50017 2.60742 7.50017C2.80633 7.50017 2.9971 7.57919 3.13775 7.71984C3.2784 7.86049 3.35742 8.05126 3.35742 8.25017V12.4474L5.46492 10.3539C6.8287 8.99086 8.566 8.06276 10.4572 7.68697C12.3484 7.31118 14.3085 7.50457 16.0898 8.2427C17.8711 8.98082 19.3936 10.2305 20.4647 11.8338C21.5358 13.4371 22.1075 15.322 22.1074 17.2502Z" fill="black"/>
</svg>
