<svg width="24" height="24" viewBox="0 0 24 24" fill="none" xmlns="http://www.w3.org/2000/svg">
<path d="M21.75 18.75C21.75 18.9489 21.671 19.1397 21.5303 19.2803C21.3897 19.421 21.1989 19.5 21 19.5C20.8011 19.5 20.6103 19.421 20.4697 19.2803C20.329 19.1397 20.25 18.9489 20.25 18.75C20.2475 16.5627 19.3775 14.4657 17.8309 12.9191C16.2843 11.3725 14.1873 10.5025 12 10.5H4.81032L8.03063 13.7194C8.17136 13.8601 8.25042 14.051 8.25042 14.25C8.25042 14.449 8.17136 14.6399 8.03063 14.7806C7.8899 14.9214 7.69903 15.0004 7.5 15.0004C7.30098 15.0004 7.11011 14.9214 6.96938 14.7806L2.46938 10.2806C2.39965 10.211 2.34433 10.1283 2.30658 10.0372C2.26884 9.94615 2.24941 9.84856 2.24941 9.75C2.24941 9.65144 2.26884 9.55384 2.30658 9.46279C2.34433 9.37174 2.39965 9.28903 2.46938 9.21937L6.96938 4.71937C7.11011 4.57864 7.30098 4.49958 7.5 4.49958C7.69903 4.49958 7.8899 4.57864 8.03063 4.71937C8.17136 4.8601 8.25042 5.05097 8.25042 5.25C8.25042 5.44902 8.17136 5.63989 8.03063 5.78062L4.81032 9H12C14.585 9.00273 17.0634 10.0308 18.8913 11.8587C20.7192 13.6866 21.7473 16.165 21.75 18.75Z" fill="black"/>
</svg>
