<svg width="25" height="25" viewBox="0 0 25 25" fill="none" xmlns="http://www.w3.org/2000/svg">
<path d="M22.7168 18.832C22.7168 19.0309 22.6378 19.2217 22.4971 19.3624C22.3565 19.503 22.1657 19.582 21.9668 19.582H18.9668V22.582C18.9668 22.7809 18.8878 22.9717 18.7471 23.1124C18.6065 23.253 18.4157 23.332 18.2168 23.332C18.0179 23.332 17.8271 23.253 17.6865 23.1124C17.5458 22.9717 17.4668 22.7809 17.4668 22.582V19.582H6.2168C6.01788 19.582 5.82712 19.503 5.68647 19.3624C5.54581 19.2217 5.4668 19.0309 5.4668 18.832V7.58203H2.4668C2.26788 7.58203 2.07712 7.50301 1.93647 7.36236C1.79581 7.22171 1.7168 7.03094 1.7168 6.83203C1.7168 6.63312 1.79581 6.44235 1.93647 6.3017C2.07712 6.16105 2.26788 6.08203 2.4668 6.08203H5.4668V3.08203C5.4668 2.88312 5.54581 2.69235 5.68647 2.5517C5.82712 2.41105 6.01788 2.33203 6.2168 2.33203C6.41571 2.33203 6.60647 2.41105 6.74713 2.5517C6.88778 2.69235 6.9668 2.88312 6.9668 3.08203V18.082H21.9668C22.1657 18.082 22.3565 18.161 22.4971 18.3017C22.6378 18.4424 22.7168 18.6331 22.7168 18.832ZM9.2168 7.58203H17.4668V15.832C17.4668 16.0309 17.5458 16.2217 17.6865 16.3624C17.8271 16.503 18.0179 16.582 18.2168 16.582C18.4157 16.582 18.6065 16.503 18.7471 16.3624C18.8878 16.2217 18.9668 16.0309 18.9668 15.832V6.83203C18.9668 6.63312 18.8878 6.44235 18.7471 6.3017C18.6065 6.16105 18.4157 6.08203 18.2168 6.08203H9.2168C9.01788 6.08203 8.82712 6.16105 8.68647 6.3017C8.54581 6.44235 8.4668 6.63312 8.4668 6.83203C8.4668 7.03094 8.54581 7.22171 8.68647 7.36236C8.82712 7.50301 9.01788 7.58203 9.2168 7.58203Z" fill="white"/>
</svg>
