<svg width="25" height="25" viewBox="0 0 25 25" fill="none" xmlns="http://www.w3.org/2000/svg">
<path d="M12.8496 3.17188C10.9212 3.17188 9.03618 3.7437 7.4328 4.81505C5.82942 5.88639 4.57974 7.40913 3.84179 9.19071C3.10383 10.9723 2.91075 12.9327 3.28696 14.824C3.66316 16.7153 4.59176 18.4526 5.95532 19.8162C7.31888 21.1797 9.05617 22.1083 10.9475 22.4845C12.8388 22.8607 14.7992 22.6677 16.5808 21.9297C18.3624 21.1917 19.8851 19.9421 20.9564 18.3387C22.0278 16.7353 22.5996 14.8502 22.5996 12.9219C22.5969 10.3369 21.5688 7.85849 19.7409 6.0306C17.913 4.20271 15.4346 3.1746 12.8496 3.17188ZM21.0996 12.9219C21.1015 14.8508 20.4241 16.7188 19.1862 18.1981L7.57336 6.58438C8.77805 5.58217 10.2433 4.94379 11.7975 4.74395C13.3518 4.54411 14.9308 4.79107 16.3499 5.45593C17.7689 6.12079 18.9692 7.17606 19.8104 8.49823C20.6515 9.82041 21.0987 11.3548 21.0996 12.9219ZM4.59961 12.9219C4.59769 10.9929 5.27513 9.12493 6.51305 7.64563L18.1259 19.2594C16.9212 20.2616 15.456 20.9 13.9017 21.0998C12.3474 21.2996 10.7684 21.0527 9.34936 20.3878C7.93033 19.723 6.73001 18.6677 5.88885 17.3455C5.0477 16.0233 4.60051 14.4889 4.59961 12.9219Z" fill="white"/>
</svg>
