<svg width="25" height="24" viewBox="0 0 25 24" fill="none" xmlns="http://www.w3.org/2000/svg">
<path d="M19.8123 18.2198C19.882 18.2895 19.9373 18.3722 19.975 18.4632C20.0127 18.5543 20.0321 18.6519 20.0321 18.7504C20.0321 18.849 20.0127 18.9465 19.975 19.0376C19.9373 19.1286 19.882 19.2114 19.8123 19.281C19.7426 19.3507 19.6599 19.406 19.5688 19.4437C19.4778 19.4814 19.3802 19.5008 19.2817 19.5008C19.1831 19.5008 19.0855 19.4814 18.9945 19.4437C18.9035 19.406 18.8207 19.3507 18.751 19.281L12.5317 13.0607L6.31229 19.281C6.17156 19.4218 5.98069 19.5008 5.78167 19.5008C5.58264 19.5008 5.39177 19.4218 5.25104 19.281C5.11031 19.1403 5.03125 18.9494 5.03125 18.7504C5.03125 18.5514 5.11031 18.3605 5.25104 18.2198L11.4714 12.0004L5.25104 5.78104C5.11031 5.64031 5.03125 5.44944 5.03125 5.25042C5.03125 5.05139 5.11031 4.86052 5.25104 4.71979C5.39177 4.57906 5.58264 4.5 5.78167 4.5C5.98069 4.5 6.17156 4.57906 6.31229 4.71979L12.5317 10.9401L18.751 4.71979C18.8918 4.57906 19.0826 4.5 19.2817 4.5C19.4807 4.5 19.6716 4.57906 19.8123 4.71979C19.953 4.86052 20.0321 5.05139 20.0321 5.25042C20.0321 5.44944 19.953 5.64031 19.8123 5.78104L13.592 12.0004L19.8123 18.2198Z" fill="white"/>
</svg>
